<mxfile host="app.diagrams.net" modified="2023-11-28T13:32:48.270Z" agent="Mozilla/5.0 (Windows NT 10.0; Win64; x64; rv:120.0) Gecko/20100101 Firefox/120.0" etag="qf88KlSPpK3bmrCo8f1E" version="21.7.4" type="device">
  <diagram name="Page-1" id="jL2_ZeZgSW9QJkB1cvN8">
    <mxGraphModel dx="1221" dy="635" grid="1" gridSize="10" guides="1" tooltips="1" connect="1" arrows="1" fold="1" page="1" pageScale="1" pageWidth="850" pageHeight="1100" math="0" shadow="0">
      <root>
        <mxCell id="0" />
        <mxCell id="1" parent="0" />
        <mxCell id="p1MSX3B8gEhtv0PjL1Jl-1" value="" style="rounded=0;whiteSpace=wrap;html=1;fillColor=#FFFFFF;" vertex="1" parent="1">
          <mxGeometry x="20" y="40" width="800" height="450" as="geometry" />
        </mxCell>
        <mxCell id="p1MSX3B8gEhtv0PjL1Jl-2" value="" style="rounded=1;whiteSpace=wrap;html=1;strokeWidth=1;" vertex="1" parent="1">
          <mxGeometry x="240" y="110" width="360" height="370" as="geometry" />
        </mxCell>
        <mxCell id="p1MSX3B8gEhtv0PjL1Jl-3" value="&lt;font face=&quot;Tahoma&quot; style=&quot;font-size: 36px;&quot;&gt;Programmtitel&lt;/font&gt;" style="text;html=1;align=center;verticalAlign=middle;whiteSpace=wrap;rounded=1;fillColor=#50C5AA;arcSize=50;strokeColor=default;strokeWidth=1;" vertex="1" parent="1">
          <mxGeometry x="240" y="50" width="360" height="50" as="geometry" />
        </mxCell>
        <mxCell id="p1MSX3B8gEhtv0PjL1Jl-4" value="&lt;font style=&quot;font-size: 20px;&quot; face=&quot;Tahoma&quot;&gt;Live-Analyse&lt;/font&gt;" style="rounded=1;whiteSpace=wrap;html=1;arcSize=50;gradientColor=none;fillColor=#50C5AA;gradientDirection=north;fillStyle=auto;strokeWidth=3;" vertex="1" parent="1">
          <mxGeometry x="307.5" y="160" width="225" height="50" as="geometry" />
        </mxCell>
        <mxCell id="p1MSX3B8gEhtv0PjL1Jl-5" value="&lt;font style=&quot;font-size: 20px;&quot; face=&quot;Tahoma&quot;&gt;Langzeitanalyse&lt;/font&gt;" style="rounded=1;whiteSpace=wrap;html=1;arcSize=50;gradientColor=none;fillColor=#50C5AA;gradientDirection=north;fillStyle=auto;strokeWidth=3;" vertex="1" parent="1">
          <mxGeometry x="307.5" y="220" width="225" height="50" as="geometry" />
        </mxCell>
        <mxCell id="p1MSX3B8gEhtv0PjL1Jl-6" value="&lt;font style=&quot;font-size: 20px;&quot; face=&quot;Tahoma&quot;&gt;Video-Analyse&lt;/font&gt;" style="rounded=1;whiteSpace=wrap;html=1;arcSize=50;gradientColor=none;fillColor=#50C5AA;gradientDirection=north;fillStyle=auto;strokeWidth=3;" vertex="1" parent="1">
          <mxGeometry x="307.5" y="280" width="225" height="50" as="geometry" />
        </mxCell>
        <mxCell id="p1MSX3B8gEhtv0PjL1Jl-7" value="&lt;font style=&quot;font-size: 16px;&quot; face=&quot;Tahoma&quot;&gt;Hilfe&lt;/font&gt;" style="rounded=1;whiteSpace=wrap;html=1;arcSize=50;gradientColor=none;fillColor=#50C5AA;gradientDirection=north;fillStyle=auto;strokeWidth=3;" vertex="1" parent="1">
          <mxGeometry x="307.5" y="410" width="96.25" height="40" as="geometry" />
        </mxCell>
        <mxCell id="p1MSX3B8gEhtv0PjL1Jl-8" value="&lt;font style=&quot;font-size: 16px;&quot; face=&quot;Tahoma&quot;&gt;Schließen&lt;/font&gt;" style="rounded=1;whiteSpace=wrap;html=1;arcSize=50;gradientColor=none;fillColor=#50C5AA;gradientDirection=north;fillStyle=auto;strokeWidth=3;" vertex="1" parent="1">
          <mxGeometry x="436.25" y="410" width="96.25" height="40" as="geometry" />
        </mxCell>
        <mxCell id="p1MSX3B8gEhtv0PjL1Jl-9" value="Hauptmenü" style="text;html=1;align=center;verticalAlign=middle;resizable=0;points=[];autosize=1;strokeColor=none;fillColor=none;" vertex="1" parent="1">
          <mxGeometry x="20" y="10" width="90" height="30" as="geometry" />
        </mxCell>
        <mxCell id="p1MSX3B8gEhtv0PjL1Jl-10" value="" style="rounded=0;whiteSpace=wrap;html=1;" vertex="1" parent="1">
          <mxGeometry x="20" y="560" width="800" height="450" as="geometry" />
        </mxCell>
        <mxCell id="p1MSX3B8gEhtv0PjL1Jl-11" value="Live-Analyse" style="text;html=1;align=center;verticalAlign=middle;resizable=0;points=[];autosize=1;strokeColor=none;fillColor=none;" vertex="1" parent="1">
          <mxGeometry x="20" y="530" width="90" height="30" as="geometry" />
        </mxCell>
        <mxCell id="p1MSX3B8gEhtv0PjL1Jl-12" value="" style="shape=umlActor;verticalLabelPosition=bottom;verticalAlign=top;html=1;outlineConnect=0;" vertex="1" parent="1">
          <mxGeometry x="200" y="635" width="150" height="300" as="geometry" />
        </mxCell>
        <mxCell id="p1MSX3B8gEhtv0PjL1Jl-14" value="" style="rounded=1;whiteSpace=wrap;html=1;strokeWidth=1;" vertex="1" parent="1">
          <mxGeometry x="530" y="570" width="266.25" height="430" as="geometry" />
        </mxCell>
        <mxCell id="p1MSX3B8gEhtv0PjL1Jl-15" value="&lt;font style=&quot;font-size: 20px;&quot; face=&quot;Tahoma&quot;&gt;Live-Analyse&lt;/font&gt;" style="rounded=1;whiteSpace=wrap;html=1;arcSize=50;gradientColor=none;fillColor=#50C5AA;gradientDirection=north;fillStyle=auto;strokeWidth=1;" vertex="1" parent="1">
          <mxGeometry x="550" y="585" width="225" height="50" as="geometry" />
        </mxCell>
        <mxCell id="p1MSX3B8gEhtv0PjL1Jl-17" value="" style="rounded=1;whiteSpace=wrap;html=1;arcSize=13;gradientColor=none;fillColor=none;gradientDirection=north;fillStyle=auto;strokeWidth=1;" vertex="1" parent="1">
          <mxGeometry x="550" y="690" width="225" height="220" as="geometry" />
        </mxCell>
        <mxCell id="p1MSX3B8gEhtv0PjL1Jl-19" value="&lt;font style=&quot;font-size: 20px;&quot; face=&quot;Tahoma&quot;&gt;RULA Score&lt;br&gt;&lt;/font&gt;" style="rounded=1;whiteSpace=wrap;html=1;arcSize=50;gradientColor=none;fillColor=#50C5AA;gradientDirection=north;fillStyle=auto;strokeWidth=1;" vertex="1" parent="1">
          <mxGeometry x="550" y="690" width="225" height="50" as="geometry" />
        </mxCell>
        <mxCell id="p1MSX3B8gEhtv0PjL1Jl-20" value="&lt;font face=&quot;Tahoma&quot; style=&quot;font-size: 17px;&quot;&gt;aktuell:&lt;/font&gt;" style="text;html=1;strokeColor=none;fillColor=none;align=center;verticalAlign=middle;whiteSpace=wrap;rounded=0;" vertex="1" parent="1">
          <mxGeometry x="560" y="760" width="60" height="30" as="geometry" />
        </mxCell>
        <mxCell id="p1MSX3B8gEhtv0PjL1Jl-21" value="&lt;div&gt;&lt;font face=&quot;Tahoma&quot; style=&quot;font-size: 17px;&quot;&gt;∅&lt;font style=&quot;font-size: 17px;&quot;&gt; le&lt;/font&gt;&lt;font style=&quot;font-size: 17px;&quot;&gt;tzte&lt;/font&gt;&lt;/font&gt;&lt;/div&gt;&lt;div&gt;&lt;font face=&quot;Tahoma&quot; style=&quot;font-size: 17px;&quot;&gt;&lt;font style=&quot;font-size: 17px;&quot;&gt;Minute:&lt;/font&gt;&lt;/font&gt;&lt;/div&gt;" style="text;html=1;strokeColor=none;fillColor=none;align=center;verticalAlign=middle;whiteSpace=wrap;rounded=0;" vertex="1" parent="1">
          <mxGeometry x="560" y="795" width="70" height="40" as="geometry" />
        </mxCell>
        <mxCell id="p1MSX3B8gEhtv0PjL1Jl-23" value="&lt;div align=&quot;right&quot;&gt;&lt;font face=&quot;Tahoma&quot; style=&quot;font-size: 17px;&quot;&gt;1.0&lt;/font&gt;&lt;/div&gt;" style="text;html=1;strokeColor=#666666;fillColor=#f5f5f5;align=right;verticalAlign=middle;whiteSpace=wrap;rounded=1;fontColor=#333333;" vertex="1" parent="1">
          <mxGeometry x="640" y="760" width="110" height="30" as="geometry" />
        </mxCell>
        <mxCell id="p1MSX3B8gEhtv0PjL1Jl-24" value="&lt;div align=&quot;right&quot;&gt;&lt;font face=&quot;Tahoma&quot; style=&quot;font-size: 17px;&quot;&gt;1.0&lt;/font&gt;&lt;/div&gt;" style="text;html=1;strokeColor=#666666;fillColor=#f5f5f5;align=right;verticalAlign=middle;whiteSpace=wrap;rounded=1;fontColor=#333333;" vertex="1" parent="1">
          <mxGeometry x="640" y="800" width="110" height="30" as="geometry" />
        </mxCell>
        <mxCell id="p1MSX3B8gEhtv0PjL1Jl-25" value="" style="ellipse;whiteSpace=wrap;html=1;fillColor=none;strokeColor=#b85450;strokeWidth=3;" vertex="1" parent="1">
          <mxGeometry x="220" y="720" width="30" height="30" as="geometry" />
        </mxCell>
        <mxCell id="p1MSX3B8gEhtv0PjL1Jl-26" value="&lt;font face=&quot;Tahoma&quot; style=&quot;font-size: 17px;&quot;&gt;kritische Region&lt;font style=&quot;font-size: 17px;&quot;&gt;&lt;font style=&quot;font-size: 17px;&quot;&gt;:&lt;br&gt;&lt;/font&gt;&lt;/font&gt;&lt;/font&gt;" style="text;html=1;strokeColor=none;fillColor=none;align=center;verticalAlign=middle;whiteSpace=wrap;rounded=0;" vertex="1" parent="1">
          <mxGeometry x="560" y="840" width="70" height="40" as="geometry" />
        </mxCell>
        <mxCell id="p1MSX3B8gEhtv0PjL1Jl-27" value="&lt;div align=&quot;left&quot;&gt;&lt;font face=&quot;Tahoma&quot; style=&quot;font-size: 17px;&quot;&gt;Ellenbogen rechts&lt;br&gt;&lt;/font&gt;&lt;/div&gt;" style="text;html=1;strokeColor=#666666;fillColor=#f5f5f5;align=left;verticalAlign=middle;whiteSpace=wrap;rounded=1;fontColor=#333333;" vertex="1" parent="1">
          <mxGeometry x="640" y="840" width="110" height="50" as="geometry" />
        </mxCell>
        <mxCell id="p1MSX3B8gEhtv0PjL1Jl-28" value="&lt;font style=&quot;font-size: 18px;&quot; face=&quot;Tahoma&quot;&gt;Zurück&lt;/font&gt;" style="rounded=1;whiteSpace=wrap;html=1;arcSize=50;gradientColor=none;fillColor=#50C5AA;gradientDirection=north;fillStyle=auto;strokeWidth=3;" vertex="1" parent="1">
          <mxGeometry x="680" y="935" width="96.25" height="40" as="geometry" />
        </mxCell>
        <mxCell id="p1MSX3B8gEhtv0PjL1Jl-30" value="" style="ellipse;whiteSpace=wrap;html=1;aspect=fixed;fillColor=#50C5AA;strokeWidth=3;" vertex="1" parent="1">
          <mxGeometry x="452.38" y="935" width="64" height="64" as="geometry" />
        </mxCell>
        <mxCell id="p1MSX3B8gEhtv0PjL1Jl-29" value="" style="html=1;verticalLabelPosition=bottom;align=center;labelBackgroundColor=#ffffff;verticalAlign=top;strokeWidth=2;strokeColor=#000000;shadow=0;dashed=0;shape=mxgraph.ios7.icons.pause;pointerEvents=1" vertex="1" parent="1">
          <mxGeometry x="476.88" y="955" width="15" height="24" as="geometry" />
        </mxCell>
      </root>
    </mxGraphModel>
  </diagram>
</mxfile>
